<?xml version="1.0" encoding="utf-8"?>
<svg viewBox="81.424 67.228 337.152 337.15" xmlns="http://www.w3.org/2000/svg">
    <path fill-rule="evenodd"
          d="M 378.619 175.134 C 381.115 168.991 389.177 144.609 376.123 111.592 C 376.123 111.592 355.966 105.256 310.085 136.546 C 290.889 131.173 270.347 130.404 249.999 130.404 C 229.65 130.404 209.11 131.173 189.912 136.546 C 144.032 105.065 123.875 111.592 123.875 111.592 C 110.821 144.609 118.884 168.991 121.38 175.134 C 105.831 191.834 96.424 213.335 96.424 239.443 C 96.424 338.307 160.349 360.575 249.616 360.575 C 338.882 360.575 403.576 338.307 403.576 239.443 C 403.576 213.335 394.169 191.834 378.619 175.134 Z M 249.999 341.762 C 186.649 341.762 135.201 338.883 135.201 277.453 C 135.201 262.864 142.496 249.041 154.782 237.715 C 175.324 218.901 210.454 228.884 249.999 228.884 C 289.737 228.884 324.484 218.901 345.216 237.715 C 357.695 249.041 364.797 262.671 364.797 277.453 C 364.797 338.691 313.349 341.762 249.999 341.762 Z"
          style="" />
    <path fill-rule="evenodd"
          d="M 238.93 270.84 L 212.919 267.442 L 201.772 244.299 L 190.624 267.442 L 164.614 270.84 L 183.723 288.145 L 178.787 313.306 L 201.772 300.938 L 224.757 313.306 L 219.819 288.145 L 238.93 270.84 Z"
          style="" />
    <path fill-rule="evenodd"
          d="M 335.386 270.841 L 309.375 267.443 L 298.228 244.3 L 287.08 267.443 L 261.07 270.841 L 280.179 288.145 L 275.243 313.306 L 298.228 300.938 L 321.213 313.306 L 316.275 288.145 L 335.386 270.841 Z"
          style="" />
</svg>
